<svg width="25" height="24" viewBox="0 0 25 24" fill="none" xmlns="http://www.w3.org/2000/svg">
<path fill-rule="evenodd" clip-rule="evenodd" d="M16.746 3.0318C14.8121 2.1701 12.6514 1.95662 10.5863 2.42322C8.5211 2.88981 6.66209 4.01148 5.28649 5.62093C3.91089 7.23038 3.09241 9.24137 2.9531 11.354C2.8138 13.4666 3.36114 15.5677 4.51349 17.3438C5.66584 19.12 7.36147 20.476 9.34748 21.2098C11.3335 21.9435 13.5035 22.0156 15.5338 21.4153C17.5641 20.815 19.346 19.5744 20.6137 17.8787C21.8814 16.1829 22.567 14.1228 22.5682 12.0056V11.0026C22.5682 10.4001 23.0566 9.9117 23.6591 9.9117C24.2616 9.9117 24.75 10.4001 24.75 11.0026V12.0062C24.7485 14.5939 23.9106 17.1125 22.3612 19.1851C20.8118 21.2576 18.6339 22.7738 16.1524 23.5075C13.6709 24.2412 11.0187 24.1531 8.59136 23.2564C6.16402 22.3596 4.09158 20.7022 2.68315 18.5313C1.27472 16.3605 0.605749 13.7925 0.776012 11.2104C0.946275 8.62834 1.94665 6.17046 3.62793 4.20335C5.30922 2.23625 7.58134 0.865327 10.1054 0.295044C12.6295 -0.27524 15.2703 -0.0143272 17.634 1.03887C18.1843 1.28408 18.4317 1.929 18.1865 2.47934C17.9413 3.02967 17.2963 3.27702 16.746 3.0318Z" fill="#BEBEBE"/>
<path fill-rule="evenodd" clip-rule="evenodd" d="M24.4301 2.5072C24.8563 2.93301 24.8567 3.62374 24.4309 4.04997L13.5218 14.97C13.3172 15.1747 13.0397 15.2898 12.7503 15.2899C12.4609 15.2899 12.1833 15.175 11.9786 14.9704L8.70589 11.6976C8.27986 11.2716 8.27986 10.5809 8.70589 10.1549C9.13191 9.72883 9.82264 9.72883 10.2487 10.1549L12.7496 12.6558L22.8873 2.50797C23.3131 2.08173 24.0039 2.08138 24.4301 2.5072Z" fill="#BEBEBE"/>
</svg>